<svg width="22" height="20" viewBox="0 0 22 20" fill="none" xmlns="http://www.w3.org/2000/svg">
<path d="M19.6429 0.375H2.35714C1.05531 0.375 0 1.2984 0 2.4375V17.5625C0 18.7016 1.05531 19.625 2.35714 19.625H19.6429C20.9447 19.625 22 18.7016 22 17.5625V2.4375C22 1.2984 20.9447 0.375 19.6429 0.375ZM19.6429 17.5625H2.35714V2.4375H19.6429V17.5625ZM17.8817 7.17592L9.40633 14.5323C9.17528 14.7329 8.80216 14.7316 8.57298 14.5294L4.11498 10.5971C3.8858 10.3949 3.88727 10.0684 4.11837 9.86787L5.23404 8.89953C5.46508 8.69899 5.8382 8.70028 6.06738 8.90249L9.0036 11.4925L15.945 5.46761C16.176 5.26708 16.5492 5.26837 16.7783 5.47054L17.885 6.4467C18.1142 6.64891 18.1127 6.97539 17.8817 7.17592Z" fill="#8DC8FF"/>
</svg>
