<svg width="32" height="26" viewBox="0 0 32 26" fill="none" xmlns="http://www.w3.org/2000/svg">
<path d="M1.14286 5.25H30.8571C31.4884 5.25 32 4.80231 32 4.25V1.75C32 1.19769 31.4884 0.75 30.8571 0.75H1.14286C0.511643 0.75 0 1.19769 0 1.75V4.25C0 4.80231 0.511643 5.25 1.14286 5.25ZM1.14286 15.25H30.8571C31.4884 15.25 32 14.8023 32 14.25V11.75C32 11.1977 31.4884 10.75 30.8571 10.75H1.14286C0.511643 10.75 0 11.1977 0 11.75V14.25C0 14.8023 0.511643 15.25 1.14286 15.25ZM1.14286 25.25H30.8571C31.4884 25.25 32 24.8023 32 24.25V21.75C32 21.1977 31.4884 20.75 30.8571 20.75H1.14286C0.511643 20.75 0 21.1977 0 21.75V24.25C0 24.8023 0.511643 25.25 1.14286 25.25Z" fill="white"/>
</svg>
