<svg width="22" height="20" viewBox="0 0 22 20" fill="none" xmlns="http://www.w3.org/2000/svg">
<path d="M19.6429 0.375H2.35714C1.0558 0.375 0 1.29883 0 2.4375V17.5625C0 18.7012 1.0558 19.625 2.35714 19.625H19.6429C20.9442 19.625 22 18.7012 22 17.5625V2.4375C22 1.29883 20.9442 0.375 19.6429 0.375ZM19.3482 17.5625H2.65179C2.48973 17.5625 2.35714 17.4465 2.35714 17.3047V2.69531C2.35714 2.55352 2.48973 2.4375 2.65179 2.4375H19.3482C19.5103 2.4375 19.6429 2.55352 19.6429 2.69531V17.3047C19.6429 17.4465 19.5103 17.5625 19.3482 17.5625Z" fill="#C7C3C6"/>
</svg>
