<svg width="21" height="19" viewBox="0 0 21 19" fill="none" xmlns="http://www.w3.org/2000/svg">
<path d="M19.5 7.53125H12.75V1.625C12.75 0.900254 12.0783 0.3125 11.25 0.3125H9.75C8.92172 0.3125 8.25 0.900254 8.25 1.625V7.53125H1.5C0.671719 7.53125 0 8.119 0 8.84375V10.1562C0 10.881 0.671719 11.4688 1.5 11.4688H8.25V17.375C8.25 18.0997 8.92172 18.6875 9.75 18.6875H11.25C12.0783 18.6875 12.75 18.0997 12.75 17.375V11.4688H19.5C20.3283 11.4688 21 10.881 21 10.1562V8.84375C21 8.119 20.3283 7.53125 19.5 7.53125Z" fill="white"/>
</svg>
